FFmpeg version SVN-r25716, Copyright (c) 2000-2010 the FFmpeg developers  built on Nov 10 2010 12:23:18 with gcc 4.1.2 20080704 (Red Hat 4.1.2-48)  configuration: --enable-libmp3lame --enable-shared --disable-mmx --arch=x86_64  libavutil     50.33. 0 / 50.33. 0  libavcore      0.12. 1 /  0.12. 1  libavcodec    52.94. 4 / 52.94. 4  libavformat   52.84. 0 / 52.84. 0  libavdevice   52. 2. 2 / 52. 2. 2  libavfilter    1.59. 0 /  1.59. 0  libswscale     0.12. 0 /  0.12. 0Seems stream 0 codec frame rate differs from container frame rate: 1200.00 (1200/1) -> 7.58 (91/12)Input #0, mov,mp4,m4a,3gp,3g2,mj2, from '/RAID10/data/converted_video_files/8101.mov':  Metadata:    major_brand     : qt      minor_version   : 537199360    compatible_brands: qt    Duration: 00:00:33.66, start: 0.000000, bitrate: 1027 kb/s    Stream #0.0(eng): Video: h264, yuv420p, 542x512, 1025 kb/s, 7.58 fps, 7.58 tbr, 600 tbn, 1200 tbc[buffer @ 0x161a9b00] w:542 h:512 pixfmt:yuv420pOutput #0, flv, to '/RAID10/data/converted_video_files/8101.flv':  Metadata:    encoder         : Lavf52.84.0    Stream #0.0(eng): Video: flv, yuv420p, 542x512, q=2-31, 600 kb/s, 1k tbn, 24 tbcStream mapping:  Stream #0.0 -> #0.0Press [q] to stop encodingframe=   28 fps=  0 q=31.0 size=     469kB time=3.62 bitrate=1060.5kbits/s    frame=   55 fps= 54 q=24.8 size=     715kB time=7.17 bitrate= 816.8kbits/s    frame=   84 fps= 55 q=31.0 size=     966kB time=11.00 bitrate= 719.0kbits/s    frame=  126 fps= 62 q=31.0 size=    1154kB time=16.54 bitrate= 571.7kbits/s    frame=  153 fps= 60 q=31.0 size=    1399kB time=20.12 bitrate= 569.5kbits/s    frame=  183 fps= 60 q=31.0 size=    1641kB time=24.08 bitrate= 558.3kbits/s    frame=  223 fps= 62 q=24.2 size=    1814kB time=29.33 bitrate= 506.7kbits/s    frame=  255 fps= 65 q=5.4 Lsize=    1979kB time=33.58 bitrate= 482.8kbits/s    video:1975kB audio:0kB global headers:0kB muxing overhead 0.212099%